<?xml version="1.0" encoding="iso-8859-1"?>
<!-- Generator: Adobe Illustrator 19.0.0, SVG Export Plug-In . SVG Version: 6.00 Build 0)  -->
<svg version="1.1" id="Capa_1" xmlns="http://www.w3.org/2000/svg" xmlns:xlink="http://www.w3.org/1999/xlink" x="0px" y="0px"
	 viewBox="0 0 512 512" style="enable-background:new 0 0 512 512;" xml:space="preserve">
<g>
	<g>
		<g>
			<path d="M477.643,127.884C431.896,48.738,347.416-0.006,256,0C164.587-0.019,80.103,48.717,34.356,127.86
				s-45.812,176.676-0.17,255.879c-0.003,0.092-0.053,0.168-0.053,0.261v59.733c0.02,18.843,15.29,34.113,34.133,34.133h60.046
				c79.042,45.511,176.332,45.511,255.374,0h60.046c18.843-0.02,34.113-15.29,34.133-34.133V384c0-0.08-0.044-0.147-0.046-0.227
				C523.457,304.564,523.389,207.03,477.643,127.884z M256,17.067c32.974,0.038,59.695,26.759,59.733,59.733
				c0,32.99-26.744,59.733-59.733,59.733S196.267,109.79,196.267,76.8S223.01,17.067,256,17.067z M224.365,321.768
				c1.6,1.6,3.771,2.499,6.035,2.499h51.2c2.263,0.001,4.434-0.898,6.035-2.499c1.6-1.6,2.499-3.771,2.499-6.035v-51.2h68.042
				c8.15,0.013,15.811,3.894,20.642,10.458l73.72,100.475H59.504l73.68-100.475c4.831-6.564,12.491-10.445,20.642-10.458h68.042
				v51.2C221.866,317.997,222.765,320.168,224.365,321.768z M238.933,307.2V151.622c11.225,2.637,22.908,2.637,34.133,0V307.2
				H238.933z M38.521,157.079c30.561-67.162,90.44-116.435,162.229-133.493c-17.011,17.576-24.602,42.221-20.427,66.322
				c4.175,24.101,19.612,44.758,41.543,55.589v101.97h-68.042c-13.581,0.023-26.346,6.489-34.4,17.425L44.447,367.088
				C10.148,301.756,7.961,224.241,38.521,157.079z M256,494.933c-30.327-0.028-60.373-5.82-88.538-17.067h177.076
				C316.373,489.114,286.327,494.905,256,494.933z M460.8,443.733c-0.011,9.421-7.646,17.056-17.067,17.067H68.267
				c-9.421-0.011-17.056-7.646-17.067-17.067v-51.2h409.6V443.733z M467.535,367.12l-74.96-102.228
				c-8.054-10.936-20.819-17.402-34.4-17.425h-68.042v-101.97c21.931-10.831,37.369-31.487,41.543-55.589
				c4.174-24.101-3.416-48.746-20.427-66.322c71.796,17.06,131.679,66.339,162.237,133.51S501.848,301.788,467.535,367.12z"/>
			<path d="M162.133,307.2c-24.658,0-51.2,8.008-51.2,25.6v17.067c-0.001,2.263,0.898,4.434,2.499,6.035
				c1.6,1.6,3.771,2.499,6.035,2.499c3.742-0.025,7.019-2.516,8.045-6.115c11.04,4.247,22.795,6.323,34.621,6.115
				c11.826,0.208,23.582-1.868,34.621-6.115c1.026,3.599,4.303,6.09,8.045,6.115c2.263,0.001,4.434-0.898,6.035-2.499
				c1.6-1.6,2.499-3.771,2.499-6.035V332.8C213.333,315.208,186.792,307.2,162.133,307.2z M162.133,341.333
				c-20.029,0-31.721-5.742-33.921-8.533c2.2-2.792,13.892-8.533,33.921-8.533s31.721,5.742,33.921,8.533
				C193.854,335.592,182.163,341.333,162.133,341.333z"/>
			<path d="M307.2,358.4c3.742-0.025,7.019-2.516,8.045-6.115c22.361,8.153,46.882,8.153,69.243,0
				c1.026,3.599,4.303,6.09,8.045,6.115c2.263,0.001,4.434-0.898,6.035-2.499c1.6-1.6,2.499-3.771,2.499-6.035V332.8
				c0-17.592-26.542-25.6-51.2-25.6s-51.2,8.008-51.2,25.6v17.067c-0.001,2.263,0.898,4.434,2.499,6.035
				C302.766,357.502,304.937,358.401,307.2,358.4z M349.867,324.267c20.029,0,31.721,5.742,33.921,8.533
				c-2.2,2.792-13.892,8.533-33.921,8.533c-20.029,0-31.721-5.742-33.921-8.533C318.146,330.008,329.837,324.267,349.867,324.267z"
				/>
		</g>
	</g>
</g>
<g>
</g>
<g>
</g>
<g>
</g>
<g>
</g>
<g>
</g>
<g>
</g>
<g>
</g>
<g>
</g>
<g>
</g>
<g>
</g>
<g>
</g>
<g>
</g>
<g>
</g>
<g>
</g>
<g>
</g>
</svg>
