<svg xmlns="http://www.w3.org/2000/svg" class="Icon-svg_095bc32a" viewBox="0 0 26 19"><g fill="none" fill-rule="evenodd"><path d="M9.412 0c-.345.001-3.196.082-6.204 2.317 0 0-3.208 5.77-3.208 12.878 0 0 1.871 3.208 6.795 3.364 0 0 .825-.98 1.493-1.827-2.83-.847-3.899-2.607-3.899-2.607s.223.156.624.38c.022 0 .044.021.089.044.067.044.134.066.2.111.557.312 1.114.557 1.627.758.913.378 2.005.712 3.275.958 1.67.311 3.631.423 5.77.022 1.047-.2 2.117-.49 3.23-.958.78-.29 1.65-.713 2.563-1.315 0 0-1.114 1.805-4.033 2.63.669.824 1.47 1.782 1.47 1.782C24.13 18.38 26 15.172 26 15.195c0-7.107-3.208-12.878-3.208-12.878C19.606-.067 16.554 0 16.554 0l-.312.357c3.787 1.136 5.547 2.807 5.547 2.807a18.52 18.52 0 0 0-6.706-2.117 18.851 18.851 0 0 0-4.5.045c-.134 0-.245.022-.38.044-.779.09-2.673.357-5.056 1.404-.825.356-1.315.624-1.315.624S5.659 1.404 9.669.268L9.446 0h-.034zm-.567 8.221c1.27 0 2.295 1.092 2.272 2.451 0 1.359-1.002 2.45-2.272 2.45-1.248 0-2.273-1.091-2.273-2.45 0-1.359 1.003-2.45 2.273-2.45zm8.132 0c1.247 0 2.272 1.092 2.272 2.451s-1.002 2.45-2.272 2.45c-1.248 0-2.273-1.091-2.273-2.45 0-1.359 1.003-2.45 2.273-2.45z" fill="currentColor" fill-rule="nonzero"></path></g></svg>