<svg xmlns="http://www.w3.org/2000/svg" class="Icon-svg_095bc32a" viewBox="0 0 25 18"><g fill="none" fill-rule="evenodd"><path d="M12.354.139s-7.508 0-9.392.512C1.953.946 1.122 1.816.841 2.888.35 4.86.35 8.945.35 8.945s0 4.101.49 6.043c.282 1.071 1.098 1.926 2.121 2.22 1.9.529 9.392.529 9.392.529s7.522 0 9.406-.513a3.06 3.06 0 0 0 2.106-2.22c.505-1.958.505-6.043.505-6.043s.015-4.1-.505-6.073C23.6 1.816 22.783.962 21.76.682 19.876.14 12.354.14 12.354.14zM9.965 5.17l6.246 3.774-6.246 3.76V5.17z" fill="currentColor" fill-rule="nonzero"></path></g></svg>