<svg width="163" height="144" viewBox="0 0 163 144" fill="none" xmlns="http://www.w3.org/2000/svg">
<path d="M25.4992 22.1549C43.4992 13.3549 73.3325 14.4882 85.9992 16.1549C104.166 18.1549 143.9 25.5548 157.5 39.1543C174.5 56.1537 142 134.154 123.5 141.154C105 148.154 75.5 139.654 52 114.654C28.5 89.6543 25.4992 96.1543 9.99919 84.6543C-5.50081 73.1543 2.99919 33.1549 25.4992 22.1549Z" fill="#2A2A2A"/>
<path d="M0.225202 116.607C-1.60636 108.921 8.18376 107 13.3078 107C18.6497 107.854 30.2493 110.971 33.9124 116.607C38.4913 123.653 34.8936 137.743 29.3336 135.822C23.7735 133.9 18.8675 131.659 13.3078 131.979C7.74802 132.299 2.51465 126.214 0.225202 116.607Z" fill="#2A2A2A"/>
<path d="M66.3064 19.4172C66.4835 19.9664 66.6279 20.5313 66.7359 21.0953C66.875 21.8236 67.5124 22.3303 68.2274 22.3303C68.3224 22.3303 68.4186 22.3216 68.5152 22.3029C69.34 22.1452 69.8805 21.3485 69.7227 20.5237C69.5912 19.8376 69.4156 19.1515 69.2005 18.484C68.9432 17.6851 68.0875 17.2453 67.287 17.5038C66.4873 17.7615 66.0483 18.6182 66.3064 19.4172Z" fill="#0D60B6"/>
<path d="M50.8145 7.68377C50.8129 8.52342 51.4926 9.20532 52.3322 9.20684C56.7224 9.21444 61.0221 11.316 63.8345 14.8293C64.1348 15.2041 64.5765 15.3995 65.0227 15.3995C65.3557 15.3995 65.6913 15.2904 65.9718 15.0661C66.6275 14.5412 66.7332 13.5845 66.2086 12.9288C62.8261 8.7032 57.6403 6.17476 52.3375 6.16602C52.3364 6.16602 52.3356 6.16602 52.3349 6.16602C51.4964 6.16602 50.816 6.84488 50.8145 7.68377Z" fill="#0D60B6"/>
<path d="M57.4028 58.9707H50.5712C49.7315 58.9707 49.0508 59.6515 49.0508 60.4911C49.0508 61.3308 49.7315 62.0115 50.5712 62.0115H57.4028C58.2424 62.0115 58.9232 61.3308 58.9232 60.4911C58.9232 59.6515 58.2424 58.9707 57.4028 58.9707Z" fill="#0D60B6"/>
<path d="M158.555 70.2514L153.892 65.5883C150.908 62.6045 146.258 62.2795 142.911 64.6084L139.864 61.5623C140.323 61.6231 140.632 61.6634 140.648 61.6634C140.978 61.6634 141.302 61.5558 141.568 61.354C141.889 61.1096 142.1 60.7481 142.154 60.3486L145.937 32.6303C146.05 31.7987 145.469 31.032 144.636 30.9184L138.1 30.0243C133.919 29.4538 130.021 32.0115 128.765 35.8916L114.009 33.879C112.964 33.7361 111.921 33.6946 110.891 33.7456V27.0242C110.891 23.8226 109.644 20.8164 107.384 18.5608C105.129 16.3011 102.125 15.0563 98.9226 15.0563C95.7263 15.0563 92.7212 16.3011 90.4607 18.5623C88.2006 20.8236 86.9569 23.829 86.9596 27.0242V35.1409H81.0787L75.0479 29.1098C75.4889 27.3135 75.7276 25.4384 75.7276 23.5079C75.7276 10.5456 65.182 0 52.2197 0C40.408 0 30.607 8.75758 28.9593 20.1196L18.1301 30.9488C16.1118 32.9671 15 35.651 15 38.506C15 41.3605 16.1118 44.0445 18.1305 46.0632L42.6856 70.6182V73.1626C42.6856 82.3828 50.1865 89.8838 59.4063 89.8838H61.7937L62.9945 91.0837C68.8576 96.9468 76.5562 99.8774 84.2575 99.8774C91.9572 99.8774 99.6596 96.9453 105.521 91.0837L120.557 76.1024L136.624 92.1826C136.92 92.4795 137.31 92.6281 137.698 92.6281C138.087 92.6281 138.477 92.4795 138.773 92.1826L158.555 72.4013C159.148 71.8079 159.148 70.8448 158.555 70.2514ZM122.077 73.3227V61.8135C124.464 61.4904 126.767 60.4155 128.597 58.5853C129.277 57.9053 129.858 57.1523 130.341 56.3393L136.914 62.912L124.29 75.5356L122.077 73.3227ZM104.375 58.4367L97.7553 51.8168L98.1951 48.5985C98.197 48.5844 98.1996 48.5711 98.2019 48.5574C99.0895 48.9923 100.032 49.3115 101.024 49.5065C101.765 49.6521 102.508 49.724 103.247 49.724C105.022 49.724 106.763 49.3013 108.357 48.4936L111.104 52.1083C110.265 52.6865 109.47 53.3422 108.734 54.0784L104.375 58.4367ZM111.442 36.7685C111.638 37.8165 111.634 38.8781 111.427 39.9317C110.996 42.123 109.738 44.0152 107.884 45.2604C106.03 46.5056 103.803 46.9549 101.611 46.5231C100.671 46.3384 99.7908 46.0035 98.9834 45.528C99.8843 43.1771 101.419 41.1158 103.473 39.5543C105.802 37.7834 108.572 36.8263 111.442 36.7685ZM120.557 49.1804C118.185 49.1804 115.89 49.6757 113.784 50.6092L110.871 46.7766C112.691 45.1376 113.93 42.965 114.411 40.5186C114.639 39.3547 114.683 38.184 114.551 37.022L122.96 38.1692L121.457 49.2063C121.159 49.1899 120.859 49.1804 120.557 49.1804ZM120.557 52.2212C123.219 52.2212 125.764 52.9799 127.949 54.3893C127.556 55.1408 127.055 55.8269 126.447 56.4351C123.187 59.6944 117.883 59.6948 114.624 56.4351C114.018 55.8296 113.521 55.1503 113.132 54.4102C115.325 52.9871 117.881 52.2212 120.557 52.2212ZM139.348 58.4306L136.943 58.1018L140.317 33.3966L142.719 33.725L139.348 58.4306ZM129.727 39.0917C130.563 39.2008 131.325 38.6227 131.439 37.7906C131.835 34.8882 134.42 32.8185 137.301 33.0047L134.178 55.8755L132.38 54.078C130.166 51.8636 127.439 50.3496 124.467 49.6407L125.973 38.5793L129.727 39.0917ZM101.633 37.1334C99.6722 38.6238 98.0985 40.4878 96.9776 42.6008L90.0008 35.624C90.0008 35.624 90.0046 26.7855 90.0092 26.6673H107.841C107.846 26.7862 107.85 34.1819 107.85 34.1819C105.623 34.7148 103.51 35.7061 101.633 37.1334ZM98.923 18.0975C101.311 18.0975 103.551 19.0245 105.234 20.7114C106.083 21.5587 106.74 22.5485 107.183 23.6265H90.666C91.1084 22.5496 91.7641 21.5606 92.6121 20.7122C94.2975 19.0261 96.539 18.0975 98.923 18.0975ZM88.2584 38.1817C88.2584 38.1817 95.6647 45.5721 95.7392 45.6238C95.4906 46.4555 95.3021 47.3111 95.1828 48.1876L95.0558 49.1177L84.1202 38.1821H88.2584V38.1817ZM102.225 60.5869L97.544 65.2679L70.5186 38.2429C71.9471 36.4728 73.1227 34.4925 73.9943 32.3555L102.225 60.5869ZM72.6875 23.5079C72.6875 24.2156 72.6514 24.915 72.5807 25.6045C67.5937 30.4504 60.8587 32.4988 55.0515 30.9932C54.9401 29.087 54.1537 27.3085 52.7918 25.9474C51.3204 24.4756 49.364 23.6652 47.2833 23.6652C46.9496 23.6652 46.6204 23.6937 46.2947 23.7348C43.4321 17.5254 45.3136 9.42998 51.0866 3.65735C51.3002 3.44374 51.5097 3.24494 51.7164 3.05413C51.8845 3.04995 52.0517 3.04121 52.2208 3.04121C63.5057 3.04121 72.6875 12.2226 72.6875 23.5079ZM47.2833 26.706C48.5517 26.706 49.7448 27.2002 50.6419 28.0972C51.5389 28.9943 52.0331 30.1874 52.0331 31.4562C52.0331 32.725 51.5389 33.9177 50.6419 34.8148C49.7448 35.7118 48.5517 36.206 47.2833 36.206C46.0145 36.206 44.8214 35.7118 43.9243 34.8144C43.0273 33.9177 42.5332 32.725 42.5332 31.4562C42.5332 30.1874 43.0273 28.9943 43.9243 28.0972C44.8214 27.2002 46.0145 26.706 47.2833 26.706ZM46.9644 3.72843C41.9535 10.0769 40.546 18.1868 43.3967 24.7101C42.8125 25.048 42.2644 25.4574 41.7745 25.9477C40.3027 27.4191 39.4923 29.3759 39.4923 31.4566C39.4923 33.5373 40.3031 35.494 41.7745 36.965C43.2458 38.4368 45.2022 39.2472 47.2833 39.2472C49.3644 39.2472 51.3204 38.4368 52.7918 36.9654C53.6352 36.122 54.2529 35.1162 54.6341 34.0219C56.0302 34.3533 57.4655 34.5183 58.9152 34.5183C63.2111 34.5183 67.626 33.0918 71.4799 30.4314C68.6356 38.3201 61.0772 43.9757 52.2208 43.9757C40.9352 43.9757 31.7534 34.7943 31.7534 23.5082C31.753 14.0395 38.2178 6.05466 46.9644 3.72843ZM42.6856 51.3116L22.3767 31.0027L28.7407 24.6387C29.1729 33.7231 34.7878 41.4681 42.6852 44.9879V51.3116H42.6856ZM26.5145 50.147L31.8678 44.7936L34.2655 47.1913L28.9122 52.5447L26.5145 50.147ZM18.0408 38.506C18.0408 36.4888 18.8193 34.5932 20.2295 33.1553L29.718 42.6438L24.3646 47.9971L20.2808 43.9133C18.8364 42.4689 18.0408 40.5483 18.0408 38.506ZM31.062 54.6946L36.4154 49.3412L42.6856 55.6114V66.3181L31.062 54.6946ZM45.9362 75.5326C48.8695 74.1923 52.3455 74.7815 54.679 77.1146C57.1417 79.5773 57.6316 83.4212 55.9865 86.41C50.8418 85.0808 46.8648 80.8248 45.9362 75.5326ZM59.1589 86.8368C60.5881 83.4707 60.2224 79.6134 58.1516 76.568L65.7286 68.9906H74.7378C74.8571 68.9906 74.9753 68.9952 75.0939 68.9997V86.8342C74.9757 86.8384 59.2413 86.8384 59.1589 86.8368ZM83.6641 77.917C83.6641 81.6367 81.3767 84.8307 78.1348 86.1698V69.6634C81.3763 71.0029 83.6641 74.1973 83.6641 77.917ZM103.371 88.9339C93.1583 99.1453 76.7409 99.4624 66.144 89.8838H74.7378C81.3364 89.8838 86.7046 84.5156 86.7046 77.917C86.7046 71.3184 81.3364 65.9498 74.7378 65.9498H66.6195V49.0884C66.6195 48.2488 65.9388 47.568 65.0991 47.568C64.2595 47.568 63.5787 48.2488 63.5787 49.0884V66.8408L56.1104 74.309C53.192 71.8642 49.2621 71.161 45.7264 72.3507V46.0966C47.7907 46.6907 49.9676 47.0161 52.2205 47.0161C58.5146 47.0161 64.2344 44.5249 68.4581 40.4825L95.3937 67.4178L91.7101 71.1013C91.116 71.6951 91.116 72.6579 91.7101 73.2512C92.3035 73.8453 93.267 73.8453 93.86 73.2512L110.745 56.3666C111.223 57.1671 111.799 57.9106 112.473 58.5849C114.314 60.4265 116.635 61.5026 119.037 61.8185V73.3227L103.371 88.9339ZM126.441 77.6851L139.064 65.0619L141.741 67.7386C142.335 68.3327 143.298 68.3327 143.891 67.7386C145.962 65.6681 149.272 65.5841 151.451 67.4752L133.833 85.0922L126.441 77.6851ZM137.698 88.9574L135.983 87.242L153.615 69.611L155.33 71.3264L137.698 88.9574Z" fill="#0D60B6"/>
</svg>
